<svg width="1200" height="630" viewBox="0 0 1200 630" fill="none" xmlns="http://www.w3.org/2000/svg">
  <defs>
    <linearGradient id="bgGrad" x1="0" y1="0" x2="1" y2="1">
      <stop offset="0%" stop-color="#E8F5E9"/>
      <stop offset="100%" stop-color="#F1F8F1"/>
    </linearGradient>
    <linearGradient id="greenGrad" x1="0" y1="0" x2="1" y2="1">
      <stop offset="0%" stop-color="#4CAF50"/>
      <stop offset="100%" stop-color="#2E7D32"/>
    </linearGradient>
    <linearGradient id="lensGrad" x1="0" y1="0" x2="0" y2="1">
      <stop offset="0%" stop-color="#1B5E20"/>
      <stop offset="100%" stop-color="#000000"/>
    </linearGradient>
    <radialGradient id="scanGrad" cx="0.5" cy="0.5" r="0.5">
      <stop offset="0%" stop-color="#7CFF8B" stop-opacity="0.35"/>
      <stop offset="100%" stop-color="#7CFF8B" stop-opacity="0"/>
    </radialGradient>
  </defs>

  <!-- Background -->
  <rect width="1200" height="630" fill="url(#bgGrad)"/>

  <!-- Decorative circles -->
  <circle cx="980" cy="80" r="180" fill="#A5D6A7" opacity="0.18"/>
  <circle cx="1100" cy="540" r="220" fill="#4CAF50" opacity="0.10"/>

  <!-- Camera illustration (right side) -->
  <g transform="translate(740, 160)">
    <!-- Scan radar background -->
    <circle cx="180" cy="140" r="220" fill="url(#scanGrad)"/>
    <circle cx="180" cy="140" r="160" fill="none" stroke="#4CAF50" stroke-width="1" stroke-dasharray="4 8" opacity="0.4"/>
    <circle cx="180" cy="140" r="100" fill="none" stroke="#4CAF50" stroke-width="1" stroke-dasharray="3 6" opacity="0.5"/>

    <!-- Mounting bracket -->
    <rect x="160" y="0" width="40" height="50" fill="#6B7280"/>
    <rect x="80" y="40" width="200" height="60" rx="6" fill="#9CA3AF"/>

    <!-- Camera body -->
    <rect x="40" y="100" width="280" height="180" rx="20" fill="#1F2937" stroke="#374151" stroke-width="3"/>
    <rect x="40" y="100" width="280" height="180" rx="20" fill="url(#lensGrad)" opacity="0.5"/>

    <!-- Sun shield -->
    <rect x="20" y="92" width="320" height="16" rx="4" fill="#111827"/>

    <!-- Lens -->
    <circle cx="180" cy="190" r="65" fill="#0A0E12" stroke="#374151" stroke-width="3"/>
    <circle cx="180" cy="190" r="55" fill="url(#lensGrad)"/>
    <circle cx="180" cy="190" r="38" fill="#0A0E12"/>
    <circle cx="180" cy="190" r="24" fill="#1B5E20" opacity="0.9"/>
    <circle cx="165" cy="175" r="10" fill="#A5D6A7" opacity="0.95"/>
    <circle cx="195" cy="200" r="5" fill="#E8F5E9" opacity="0.8"/>

    <!-- LED indicator -->
    <circle cx="290" cy="125" r="8" fill="#7CFF8B"/>

    <!-- REC badge -->
    <g transform="translate(60, 130)">
      <circle cx="10" cy="10" r="10" fill="#EF4444"/>
      <text x="28" y="16" fill="white" font-size="18" font-weight="bold" font-family="monospace">REC</text>
    </g>
  </g>

  <!-- Text content (left side) -->
  <g transform="translate(80, 110)">
    <!-- Tagline -->
    <rect x="0" y="0" width="380" height="36" rx="18" fill="url(#greenGrad)"/>
    <text x="190" y="24" text-anchor="middle" fill="white" font-size="14" font-weight="bold" font-family="'Segoe UI', sans-serif" letter-spacing="1">INSTALACIÓN A NIVEL NACIONAL</text>

    <!-- Main heading -->
    <text x="0" y="100" font-family="'Segoe UI', sans-serif" font-size="48" font-weight="800" fill="#1B5E20">
      Instalación de
    </text>
    <text x="0" y="155" font-family="'Segoe UI', sans-serif" font-size="48" font-weight="800" fill="#2E7D32">
      Cámaras de Seguridad
    </text>
    <text x="0" y="210" font-family="'Segoe UI', sans-serif" font-size="40" font-weight="700" fill="#6B7280">
      a Nivel Nacional
    </text>

    <!-- Underline -->
    <rect x="0" y="230" width="380" height="6" rx="3" fill="url(#greenGrad)"/>

    <!-- Subheading -->
    <text x="0" y="280" font-family="'Segoe UI', sans-serif" font-size="20" font-weight="600" fill="#374151">
      Cámaras de seguridad CCTV, WiFi y videovigilancia
    </text>
    <text x="0" y="310" font-family="'Segoe UI', sans-serif" font-size="20" font-weight="600" fill="#374151">
      Accesorios para PC y celulares
    </text>

    <!-- WhatsApp info -->
    <g transform="translate(0, 380)">
      <rect x="0" y="0" width="320" height="50" rx="12" fill="white" stroke="#A5D6A7" stroke-width="2"/>
      <circle cx="30" cy="25" r="14" fill="#25D366"/>
      <text x="30" y="32" text-anchor="middle" fill="white" font-size="18" font-weight="bold">W</text>
      <text x="60" y="22" fill="#6B7280" font-size="11" font-family="'Segoe UI', sans-serif">Cotiza por WhatsApp</text>
      <text x="60" y="40" fill="#1B5E20" font-size="16" font-weight="bold" font-family="'Segoe UI', sans-serif">+58 416-9726126</text>
    </g>

    <!-- Location -->
    <text x="0" y="465" font-family="'Segoe UI', sans-serif" font-size="14" fill="#6B7280">
      Barinas, Venezuela · Instalaciones y envíos a todo el país
    </text>
  </g>
</svg>
